<?xml version="1.0" encoding="utf-8"?>
<!-- Generator: Adobe Illustrator 22.0.0, SVG Export Plug-In . SVG Version: 6.00 Build 0)  -->
<svg version="1.0" id="Layer_1" xmlns="http://www.w3.org/2000/svg" xmlns:xlink="http://www.w3.org/1999/xlink" x="0px" y="0px"
	 viewBox="0 0 2834.6 1683.8" style="enable-background:new 0 0 2834.6 1683.8;" xml:space="preserve">
<style type="text/css">
	.st0{fill-rule:evenodd;clip-rule:evenodd;fill:#144458;}
	.st1{fill:#BAB693;}
	.st2{fill:#00AFCF;}
</style>
<path class="st0" d="M2454.5,802c31.8-24.4,69.9-34.4,109.3-34.4c43.2,0,83.6,14.1,115.2,45.7c32,31.9,47.4,74,47.4,120.1
	c0,38.3-10.7,74.7-34.5,104.1c-7.7,9.5-16.3,17.6-25.6,24.4l-0.1,23.1c2.1,9.3,3.2,18.9,3.2,28.7c0,31.7-11.3,61.1-32.5,83.6
	c-21.4,22.7-49.5,34.7-79.9,34.7c-30.2,0-58.1-12.1-79.6-34.4c-21.6-22.5-33.3-52-33.3-84c0-1,0-2,0-3c-0.6,0.6-1.3,1.3-1.9,1.9
	c-30.5,29.6-69.4,42.7-110.6,42.7c-23.9,0-47.3-4.3-69.4-13.9c-12.1-5.2-23.4-11.9-34.1-19.7c-10.7,7.5-22.1,13.8-34.1,18.9
	c-22.9,9.8-47.2,14.8-71.9,14.8c-16.6,0-33-2.2-49-6.6l0.1,0.6h-937.8v-2.8c-17.3,5.3-35.2,7.9-53.2,8.5l14.8,20.5H859l-15.6-21.5
	c-5.1,0.4-10.1,0.6-15.2,0.6c-18.9,0-37.6-2.7-55.8-8.2c-18.4-5.6-35.9-13.9-51.9-25.1c-25.8-18-46.2-41.9-60.7-70.5
	c-14.5-28.7-21.8-59.9-21.8-92.4c0-10.8,0.8-21.5,2.5-32.1H515.6V839c-3-0.2-6-0.5-8.9-0.8c-4.7,38.7-21.9,73.2-51.4,99.2
	c-33.3,29.3-74.6,41-117.5,41c-43.2,0-83.6-14.1-115.2-45.7c-32-31.9-47.4-74-47.4-120.1c0-38.3,10.7-74.7,34.5-104.1
	c7.7-9.5,16.3-17.6,25.6-24.4l0.1-23.1c-2.1-9.3-3.2-18.9-3.2-28.7c0-31.7,11.3-61.1,32.5-83.6c21.4-22.7,49.5-34.7,79.9-34.7
	c19.8,0,38.6,5.2,55.3,15c1.9-2.6,3.8-5.1,5.8-7.6c30.7-38,72.8-57.7,120.1-57.7c16.2,0,32.1,2.2,47.3,7h308.1l59.2-88.8h276.2
	l-128.5,125.5c2.7,2.6,5.4,5.2,8,8c19.4,20.9,32.3,45.5,39.6,72.1V470.6h137.6c15.7-5.1,32.1-7.4,48.8-7.4
	c22.7,0,44.9,4.5,65.1,14.8c20.9-10.1,43.5-14.8,66.7-14.8c16.2,0,32.2,2.3,47.5,7.4h271.8c16.5-5.1,33.8-7.4,51.4-7.4
	c25.4,0,50.3,5.2,72.9,17.5c3.9,2.1,7.6,4.4,11.2,6.8c26.7-16,57-23.8,89.3-23.8c38.2,0,74.6,9.9,105,32.5
	c10.5-7.4,21.8-13.7,33.7-18.7c21.9-9.2,44.9-13.8,68.5-13.8c23.8,0,47.2,4.5,69.2,13.8c22.1,9.4,42,23.2,59,40.7
	c17,17.4,30.5,37.8,39.8,60.7c9.3,22.9,13.9,47.3,13.9,72.1c0,24.9-4.5,49.5-13.7,72.5c-5.6,14-12.7,27-21.3,38.9
	c14.5,0.9,28.8,3.5,42.7,7.9c18.1,5.7,35.1,14.3,50.7,25.4L2454.5,802z"/>
<path class="st1" d="M2586.1,1050.3h-63.8v-80.5h19.8c14,0,24.6-3,31.9-9c7.3-6,11-14.6,11-25.7c0-8.9-2.8-16.5-8.4-22.7
	c-5.6-6.2-12.5-9.2-20.7-9.2c-8.7,0-15.4,2.5-20.4,7.3c-4.9,4.9-7.6,12-8.2,21.3h-63.4V931c0-25.3,8.6-45.5,25.8-60.6
	c17.2-15.1,40.3-22.7,69.2-22.7c26.2,0,47.4,8,63.4,23.9c16,16,24,37,24,62.9c0,21.7-5.5,39.3-16.6,53c-11,13.6-25.5,20.7-43.2,21.2
	L2586.1,1050.3z M2514.3,1114.8c0-11,3.7-20.3,11-28c7.3-7.6,16.1-11.5,26.7-11.5c10.6,0,19.5,3.8,26.6,11.4
	c7.1,7.6,10.6,16.9,10.6,28.1c0,11.2-3.6,20.5-10.8,28.1c-7.2,7.6-16,11.4-26.5,11.4c-10.4,0-19.2-3.9-26.6-11.5
	C2518,1135.2,2514.3,1125.9,2514.3,1114.8z"/>
<path class="st2" d="M305.4,698h63.8v80.5h-19.8c-14,0-24.6,3-31.9,9c-7.3,6-11,14.6-11,25.7c0,8.9,2.8,16.5,8.4,22.7
	c5.6,6.2,12.5,9.2,20.7,9.2c8.7,0,15.4-2.5,20.4-7.3c4.9-4.9,7.6-12,8.2-21.3h63.4v0.8c0,25.3-8.6,45.5-25.8,60.6
	c-17.2,15.1-40.3,22.7-69.2,22.7c-26.2,0-47.4-8-63.4-23.9c-16-16-24-37-24-62.9c0-21.7,5.5-39.3,16.6-53
	c11-13.6,25.5-20.7,43.2-21.2L305.4,698z M377.2,633.4c0,11-3.7,20.3-11,28c-7.3,7.6-16.1,11.5-26.7,11.5
	c-10.6,0-19.5-3.8-26.6-11.4c-7.1-7.6-10.6-16.9-10.6-28.1c0-11.2,3.6-20.5,10.8-28.1c7.2-7.6,16-11.4,26.5-11.4
	c10.4,0,19.2,3.9,26.6,11.5C373.5,613.1,377.2,622.4,377.2,633.4z"/>
<path class="st2" d="M2094.3,652.1c0-14.8,2.7-28.8,8.1-41.9c5.4-13.2,13.1-24.9,23.1-35.2c9.9-10.1,21.3-17.9,34.3-23.3
	c12.9-5.4,26.4-8.1,40.5-8.1c14.5,0,28.2,2.7,41.1,8.1c12.8,5.5,24.3,13.4,34.5,23.9c10.1,10.4,17.9,22.2,23.2,35.3
	c5.3,13.1,7.9,26.8,7.9,41.2c0,15-2.6,29-7.9,42.1c-5.2,13.1-12.9,24.7-22.9,34.9c-10.6,10.6-22.3,18.7-35.2,24.2
	c-12.9,5.5-26.5,8.2-40.7,8.2c-14,0-27.4-2.8-40.3-8.2c-12.9-5.5-24.4-13.4-34.5-23.8c-10.1-10.6-17.9-22.4-23.2-35.5
	C2096.9,680.9,2094.3,666.9,2094.3,652.1 M2260.2,652.6c0-18.8-5.8-34.8-17.3-47.8c-11.5-13.1-25.6-19.5-42.3-19.5
	c-16.5,0-30.6,6.5-42.2,19.5c-11.6,13.1-17.4,29-17.4,47.8c0,18.8,5.8,34.8,17.4,47.8c11.6,13.1,25.7,19.5,42.2,19.5
	c16.5,0,30.6-6.5,42.3-19.5C2254.5,687.3,2260.2,671.4,2260.2,652.6z M2045.9,627.6c-1.7-14.5-7-25.6-15.8-33.2
	c-8.8-7.7-20.9-11.5-36.2-11.5c-14.5,0-26.2,3.7-35,11.1c-8.8,7.4-14.9,18.6-18.5,33.6H2045.9z M2091.8,658.7h-154.3
	c1.1,19,6.5,33.8,16.1,44.4c9.6,10.6,22.4,16,38.5,16c14.2,0,26.1-3.1,35.6-9.4c9.5-6.3,17.8-16.4,24.9-30.4l37.1,21.8
	c-10.8,20.4-24.3,35.5-40.3,45.5c-16,10-34.8,15-56.4,15c-31,0-55.6-9.9-73.9-29.7c-18.3-19.8-27.4-46.2-27.4-79.3
	c0-31.8,9.5-57.8,28.4-78.3c18.9-20.4,43.2-30.6,73-30.6c31.1,0,55.3,9.3,72.7,28c17.4,18.6,26.1,44.8,26.1,78.3V658.7z
	 M1735.4,716.5l36.7-21c2.7,10.1,7.7,17.9,15.1,23.1c7.3,5.3,16.7,8,28.2,8c9.9,0,17.7-2.4,23.3-7.1c5.6-4.8,8.4-11.3,8.4-19.6
	c0-10.9-10-20.4-30.1-28.2c-6.7-2.6-12-4.7-15.6-6.4c-20.6-9-35.1-18.1-43.3-27.4c-8.2-9.2-12.3-20.5-12.3-33.7
	c0-18.1,6.7-32.7,20.2-44.1c13.6-11.2,31.4-16.8,53.6-16.8c14.9,0,27.7,2.9,38.4,8.7c10.6,5.8,18.4,13.9,23.3,24.7l-31.3,22.7
	c-2.3-6.4-6.3-11.5-12.1-15.3c-5.8-3.8-12.4-5.7-20-5.7c-8.4,0-15.1,2.1-20.2,6.3c-5.1,4.2-7.6,9.8-7.6,16.8
	c0,10.5,11.4,20.1,34.1,28.8c7.2,2.7,12.8,5,16.7,6.6c17.8,7.4,30.5,15.8,38.2,25.1c7.6,9.3,11.5,21,11.5,34.9
	c0,20.3-7,36.1-21,47.6c-14,11.5-33.2,17.2-57.8,17.2c-18.8,0-34.5-3.7-47-11.1C1752.2,743,1742.5,731.7,1735.4,716.5z
	 M1584.6,550.6v114.2c0,19.6,3.9,33.8,11.6,42.3c7.7,8.5,20.2,12.8,37.6,12.8c17.4,0,29.9-4.3,37.6-12.8
	c7.7-8.5,11.6-22.7,11.6-42.3V550.6h44.2v100.3c0,38.7-7.4,66.9-22.2,84.4c-14.8,17.5-38.4,26.3-70.8,26.3c-32.9,0-56.8-8.7-71.6-26
	c-14.8-17.4-22.2-45.6-22.2-84.6V550.6H1584.6z M1250.2,753.2H1206V550.6h41.6v33.3c8.8-14.2,18.8-24.5,30-31
	c11.2-6.5,24.4-9.7,39.6-9.7c15.1,0,27.6,3.3,37.5,9.9c9.9,6.6,17.4,16.8,22.6,30.3c10.2-14,21.1-24.2,32.5-30.6
	c11.5-6.4,24.5-9.6,39.2-9.6c12.7,0,23.8,2.5,33.4,7.4c9.5,5,16.9,12.1,22.2,21.5c2.5,4.4,4.3,9.7,5.4,15.8
	c1.2,6.1,1.7,14.9,1.7,26.3v16.3v122.8h-44.2v-104c0-27.2-2.8-45.1-8.3-53.8c-5.5-8.6-15.3-12.9-29.4-12.9
	c-17.4,0-29.7,5.8-37.1,17.4c-7.4,11.6-11.1,31.9-11.1,61v92.3h-44.6v-104c0-25.1-2.8-42.4-8.6-52.1c-5.8-9.7-15.8-14.5-29.9-14.5
	c-8.7,0-16.6,2-23.8,6.2c-7.2,4.2-12.9,9.8-17.2,17.1c-2.7,4.7-4.6,10.5-5.7,17.3c-1,6.9-1.6,19.5-1.6,37.9V753.2z M935.9,520
	l38.8-58.2h45.9L961,520H935.9z M1017.6,627.6c-1.7-14.5-7-25.6-15.8-33.2c-8.8-7.7-20.9-11.5-36.2-11.5c-14.5,0-26.2,3.7-35,11.1
	c-8.8,7.4-14.9,18.6-18.5,33.6H1017.6z M1063.5,658.7H909.2c1.1,19,6.5,33.8,16.1,44.4c9.6,10.6,22.4,16,38.5,16
	c14.2,0,26.1-3.1,35.6-9.4c9.5-6.3,17.8-16.4,24.9-30.4l37.1,21.8c-10.8,20.4-24.3,35.5-40.3,45.5c-16,10-34.8,15-56.4,15
	c-31,0-55.6-9.9-73.9-29.7c-18.3-19.8-27.4-46.2-27.4-79.3c0-31.8,9.5-57.8,28.4-78.3c18.9-20.4,43.2-30.6,73-30.6
	c31.1,0,55.3,9.3,72.7,28c17.4,18.6,26.1,44.8,26.1,78.3V658.7z M704.6,550.6v114.2c0,19.6,3.9,33.8,11.6,42.3
	c7.7,8.5,20.2,12.8,37.6,12.8c17.4,0,29.9-4.3,37.6-12.8c7.7-8.5,11.6-22.7,11.6-42.3V550.6h44.2v100.3c0,38.7-7.4,66.9-22.2,84.4
	c-14.8,17.5-38.4,26.3-70.8,26.3c-32.9,0-56.8-8.7-71.6-26c-14.8-17.4-22.2-45.6-22.2-84.6V550.6H704.6z M630,848.6h-44.2V727
	c-7.9,11.6-17.1,20.3-27.6,26c-10.6,5.7-22.6,8.5-36.2,8.5c-27.2,0-48.8-9.8-64.4-29.4c-15.7-19.5-23.6-46.4-23.6-80.5
	c0-32.3,8-58.4,24-78.3c16.1-19.9,37-29.8,62.7-29.8c15.8,0,29.3,3.4,40.4,10.4c11.2,6.9,19.4,16.8,24.5,29.7v-33H630V848.6z
	 M587,651.2c0-20.9-4.7-37.3-14-48.9c-9.3-11.7-22.3-17.6-39-17.6c-16.7,0-29.9,6.1-39.4,18.1c-9.6,12-14.4,28.8-14.4,50.2
	c0,21.5,4.6,38.1,13.8,49.8c9.2,11.7,22.3,17.6,39.1,17.6c16.1,0,29.1-6.3,39-18.8C582.1,689,587,672.3,587,651.2z"/>
<path class="st1" d="M2277,999.1c8.7,10.3,17.2,18,25.6,23.1c8.4,5.1,16.8,7.6,25.1,7.6c7.8,0,14.2-2.2,19.2-6.6
	c5-4.4,7.5-9.9,7.5-16.7c0-7.4-2.1-13.2-6.5-17.2c-4.3-4-14.1-8.2-29.3-12.5c-20.9-5.9-35.7-13.6-44.4-23.1c-8.7-9.5-13-22.5-13-39
	c0-21.5,6.8-38.9,20.5-52.4c13.6-13.5,31.4-20.3,53.2-20.3c11.8,0,22.9,1.7,33.5,5c10.6,3.3,20.6,8.4,30,15.1l-18.3,43.9
	c-6.6-5.9-13.4-10.3-20.4-13.4c-6.9-3-13.8-4.5-20.6-4.5c-7,0-12.6,1.8-17,5.3c-4.4,3.5-6.6,8-6.6,13.5c0,5.6,1.9,10.1,5.7,13.5
	c3.8,3.3,11.2,6.6,22.2,9.6l2.6,0.8c23.7,6.7,39.4,14.1,46.8,22.2c5.1,5.5,8.9,12.1,11.5,19.8c2.6,7.7,3.9,16.2,3.9,25.7
	c0,23.8-7.4,42.9-22.3,57.3c-14.9,14.5-34.7,21.7-59.5,21.7c-14.9,0-28.4-2.7-40.7-7.9c-12.2-5.3-23.9-13.6-35.2-25L2277,999.1z
	 M2116.9,1025.7c16.1,0,29.5-6.2,40-18.6c10.6-12.5,15.8-28.2,15.8-47.2c0-18.8-5.3-34.4-16-47c-10.7-12.5-24-18.8-39.8-18.8
	c-16.1,0-29.5,6.3-40,18.8c-10.6,12.5-15.8,28.2-15.8,47.1c0,19.2,5.2,34.9,15.6,47.3C2087.1,1019.6,2100.5,1025.7,2116.9,1025.7z
	 M2231,959.9c0,16.1-2.8,31.2-8.5,45.3c-5.6,14.1-13.8,26.7-24.6,37.8c-10.9,11-23.3,19.5-37.3,25.5c-14,6-28.5,8.9-43.6,8.9
	c-15.3,0-29.9-3-43.8-8.9c-13.9-6-26.2-14.5-36.8-25.5c-11-11.1-19.3-23.8-25-38c-5.7-14.2-8.5-29.2-8.5-45.1
	c0-16,2.8-31.1,8.5-45.2c5.7-14.1,14-26.7,25-37.9c10.6-11,22.8-19.5,36.8-25.5c13.9-6,28.6-8.9,43.8-8.9c15.1,0,29.8,3,43.8,8.9
	c14,6,26.4,14.5,37.1,25.5c10.7,11,18.9,23.6,24.6,37.8C2228.2,928.8,2231,943.9,2231,959.9z M1980.5,1071.5h-54.4l-12.5-96.9
	c-0.9-6.8-1.7-14.4-2.4-22.8c-0.7-8.4-1.4-17.5-1.9-27.4c-1.4,9.5-4,21.3-8,35.5c-0.9,2.9-1.5,5.1-1.9,6.6l-29,105h-38.8l-29-105
	c-0.4-1.5-1-3.7-1.8-6.6c-4.1-14.2-6.7-26-8-35.4c-0.5,8.5-1.2,16.9-2,25.2c-0.7,8.3-1.7,16.6-2.7,24.9l-12.5,96.9h-54.1l32.9-224.1
	h57.6L1844,963c0.2,0.8,0.6,2.1,1.2,4c3,10.3,4.9,19.1,5.7,26.5c0.4-4,1.1-8.4,2.2-13.3c1-4.9,2.5-10.7,4.4-17.6l32.5-115.2h57.7
	L1980.5,1071.5z M1566.4,1071.5V847.4h130.8v49.2h-74.1v38.9h69.8v48h-69.8v37.9h74.1v50.2H1566.4z M1429.6,953.3h10.8
	c12.5,0,21.7-2.2,27.5-6.7c5.8-4.5,8.7-11.5,8.7-21.1c0-11.2-2.7-19.2-8.1-24c-5.4-4.8-14.4-7.1-27.2-7.1h-11.6V953.3z
	 M1374.9,1071.5V847.4h60.9c23.8,0,40.4,1.1,49.8,3.4c9.4,2.3,17.5,6.2,24.3,11.5c7.7,6.1,13.6,13.9,17.7,23.4
	c4.1,9.5,6.2,20,6.2,31.4c0,17.3-4.1,31.4-12.2,42.3c-8.2,10.9-20,18.1-35.6,21.6l58.2,90.4h-65.7l-49-87.8v87.8H1374.9z
	 M1205.6,1071.5V847.4h130.8v49.2h-74.1v38.9h69.8v48h-69.8v37.9h74.1v50.2H1205.6z M971.6,847.4h57.9v109c0,16,0.4,27.5,1.1,34.5
	c0.8,7,2.1,12.9,4,17.6c2.2,5.7,6.1,10.1,11.6,13.1c5.5,3,12.3,4.5,20.3,4.5c8,0,14.7-1.5,20.2-4.5c5.5-3,9.4-7.4,11.7-13.1
	c1.9-4.7,3.2-10.6,4-17.6c0.7-6.9,1.1-18.5,1.1-34.5v-15.3v-93.7h57.9v118.5c0,24.6-1.4,42.7-4.2,54.4c-2.8,11.6-7.6,21.6-14.3,29.9
	c-7.3,9-17.3,15.9-30,20.4c-12.7,4.5-28.2,6.8-46.3,6.8c-18.3,0-33.7-2.2-46.4-6.8c-12.7-4.5-22.7-11.4-30.1-20.4
	c-6.6-8.3-11.3-18.3-14.2-29.9c-2.8-11.7-4.3-29.8-4.3-54.4v-23.2V847.4z M940.9,1097.8h-49.6l-22.7-31.3c-6.1,3.4-13,6.1-20.6,7.8
	c-7.6,1.7-15.8,2.6-24.8,2.6c-12.1,0-23.8-1.7-34.9-5.1c-11.1-3.3-21.5-8.4-31.1-15c-15.3-10.7-27.2-24.7-35.9-41.8
	c-8.7-17.2-13-35.6-13-55.3c0-15.9,2.9-31,8.6-45.1c5.7-14.2,14-26.9,24.9-38c10.7-11,22.9-19.4,36.7-25.3
	c13.8-5.9,28.4-8.8,43.9-8.8c15.3,0,29.9,2.9,43.7,8.8c13.8,5.9,26.1,14.3,36.9,25.3c10.8,11.1,19.1,23.8,24.8,38
	c5.7,14.2,8.6,29.3,8.6,45.1c0,16.8-2.9,32.2-8.8,46.5c-5.8,14.3-14.4,26.8-25.7,37.5L940.9,1097.8z M857.4,982.1l11.1,15.5
	c3.1-5.1,5.5-10.7,7.1-16.8c1.6-6.1,2.5-12.5,2.5-19.4c0-19.7-5.3-35.9-15.8-48.6c-10.6-12.7-23.9-19.1-40-19.1
	c-15.8,0-29.1,6.3-39.8,19c-10.7,12.7-16,28.4-16,47.2c0,19.2,5.3,35.1,15.9,47.6c10.6,12.5,24,18.8,40.3,18.8
	c2.2,0,4.5-0.3,6.9-0.8c2.4-0.6,4.9-1.4,7.7-2.6l-30.2-40.9H857.4z"/>
</svg>
